<svg width="108" height="88" viewBox="0 0 108 88" fill="none" xmlns="http://www.w3.org/2000/svg">
<path d="M27.2688 58.412C22.5568 58.412 18.5034 57.5507 15.1088 55.828C11.7141 54.1053 9.10478 51.648 7.28078 48.456C5.50745 45.2133 4.62078 41.3627 4.62078 36.904V4.3H18.6808V36.904C18.6808 38.6773 19.0354 40.1973 19.7448 41.464C20.4541 42.7307 21.4421 43.6933 22.7088 44.352C24.0261 45.0107 25.5968 45.34 27.4208 45.34C29.2448 45.34 30.8154 45.0107 32.1328 44.352C33.4501 43.6933 34.4381 42.7307 35.0968 41.464C35.8061 40.1973 36.1608 38.6773 36.1608 36.904V4.3H50.2208V36.904C50.2208 41.3627 49.3088 45.2133 47.4848 48.456C45.6608 51.648 43.0261 54.1053 39.5808 55.828C36.1861 57.5507 32.0821 58.412 27.2688 58.412ZM51.7556 57.5L72.4276 28.468L88.9956 4.3H105.792L85.7276 31.66L68.7036 57.5H51.7556ZM89.4516 57.5L72.5036 31.66L52.3636 4.3H69.1596L85.8036 28.392L106.4 57.5H89.4516Z" fill="#0095FF"/>
<path d="M9.56987 81.812C8.2352 81.812 7.05653 81.526 6.03387 80.954C5.0112 80.3647 4.2052 79.5587 3.61587 78.536C3.04387 77.5133 2.75787 76.3347 2.75787 75C2.75787 73.6653 3.04387 72.4867 3.61587 71.464C4.2052 70.4413 5.00253 69.644 6.00787 69.072C7.03053 68.4827 8.20053 68.188 9.51787 68.188C10.8005 68.188 11.9619 68.5 13.0019 69.124C14.0419 69.7307 14.8132 70.606 15.3159 71.75L12.6119 72.79C12.3345 72.218 11.9099 71.7587 11.3379 71.412C10.7659 71.0653 10.1159 70.892 9.38787 70.892C8.6772 70.892 8.04453 71.074 7.48987 71.438C6.9352 71.7847 6.50187 72.27 6.18987 72.894C5.87787 73.5007 5.72187 74.2027 5.72187 75C5.72187 75.7973 5.87787 76.508 6.18987 77.132C6.5192 77.7387 6.9612 78.224 7.51587 78.588C8.08787 78.9347 8.7292 79.108 9.43987 79.108C10.1679 79.108 10.8179 78.926 11.3899 78.562C11.9619 78.1807 12.3865 77.6693 12.6639 77.028L15.3679 78.068C14.8652 79.2467 14.0939 80.1653 13.0539 80.824C12.0312 81.4827 10.8699 81.812 9.56987 81.812ZM16.6144 81.5V63.3H19.5264V81.5H16.6144ZM25.4284 81.5V74.844H28.3404V81.5H25.4284ZM25.4284 74.844C25.4284 73.804 25.3071 73.0067 25.0644 72.452C24.8218 71.88 24.4838 71.4813 24.0504 71.256C23.6344 71.0307 23.1491 70.918 22.5944 70.918C21.6064 70.9007 20.8438 71.2213 20.3064 71.88C19.7864 72.5387 19.5264 73.4833 19.5264 74.714H18.4084C18.4084 73.3447 18.6078 72.1747 19.0064 71.204C19.4224 70.216 20.0031 69.4707 20.7484 68.968C21.4938 68.448 22.3778 68.188 23.4004 68.188C24.4231 68.188 25.3071 68.396 26.0524 68.812C26.7978 69.228 27.3611 69.878 27.7424 70.762C28.1411 71.6287 28.3404 72.764 28.3404 74.168V74.844H25.4284ZM38.1796 81.5L38.0496 79.056V74.818C38.0496 73.934 37.9543 73.1973 37.7636 72.608C37.5903 72.0013 37.2956 71.542 36.8796 71.23C36.481 70.9007 35.9436 70.736 35.2676 70.736C34.6436 70.736 34.0976 70.866 33.6296 71.126C33.1616 71.386 32.763 71.7933 32.4336 72.348L29.8856 71.412C30.163 70.84 30.527 70.3113 30.9776 69.826C31.4456 69.3233 32.0263 68.9247 32.7196 68.63C33.4303 68.3353 34.2796 68.188 35.2676 68.188C36.533 68.188 37.5903 68.4393 38.4396 68.942C39.289 69.4273 39.913 70.1293 40.3116 71.048C40.7276 71.9667 40.9356 73.076 40.9356 74.376L40.8576 81.5H38.1796ZM34.4356 81.812C32.8756 81.812 31.6623 81.4653 30.7956 80.772C29.9463 80.0787 29.5216 79.0993 29.5216 77.834C29.5216 76.482 29.9723 75.4507 30.8736 74.74C31.7923 74.0293 33.0663 73.674 34.6956 73.674H38.1796V75.91H35.6316C34.4703 75.91 33.6556 76.0747 33.1876 76.404C32.7196 76.716 32.4856 77.1667 32.4856 77.756C32.4856 78.2587 32.685 78.6573 33.0836 78.952C33.4996 79.2293 34.0716 79.368 34.7996 79.368C35.4583 79.368 36.0303 79.2207 36.5156 78.926C37.001 78.6313 37.3736 78.2413 37.6336 77.756C37.911 77.2707 38.0496 76.7247 38.0496 76.118H38.9076C38.9076 77.886 38.5523 79.2813 37.8416 80.304C37.131 81.3093 35.9956 81.812 34.4356 81.812ZM42.8444 81.5V63.3H45.7564V81.5H42.8444ZM47.9489 81.5V63.3H50.8609V81.5H47.9489ZM58.8514 81.812C57.5861 81.812 56.4594 81.526 55.4714 80.954C54.5008 80.3647 53.7294 79.5587 53.1574 78.536C52.6028 77.5133 52.3254 76.3347 52.3254 75C52.3254 73.6653 52.6114 72.4867 53.1834 71.464C53.7554 70.4413 54.5354 69.644 55.5234 69.072C56.5288 68.4827 57.6728 68.188 58.9554 68.188C60.1168 68.188 61.1654 68.4913 62.1014 69.098C63.0374 69.6873 63.7741 70.5453 64.3114 71.672C64.8661 72.7987 65.1434 74.142 65.1434 75.702H54.9254L55.3154 75.338C55.3154 76.1353 55.4888 76.8287 55.8354 77.418C56.1821 77.99 56.6414 78.432 57.2134 78.744C57.7854 79.056 58.4181 79.212 59.1114 79.212C59.9088 79.212 60.5674 79.0387 61.0874 78.692C61.6074 78.328 62.0148 77.86 62.3094 77.288L64.8834 78.38C64.5194 79.0733 64.0514 79.68 63.4794 80.2C62.9248 80.72 62.2574 81.1187 61.4774 81.396C60.7148 81.6733 59.8394 81.812 58.8514 81.812ZM55.4974 73.83L55.0814 73.466H62.4134L62.0234 73.83C62.0234 73.1193 61.8674 72.5387 61.5554 72.088C61.2434 71.62 60.8448 71.2733 60.3594 71.048C59.8914 70.8053 59.3974 70.684 58.8774 70.684C58.3574 70.684 57.8374 70.8053 57.3174 71.048C56.7974 71.2733 56.3641 71.62 56.0174 72.088C55.6708 72.5387 55.4974 73.1193 55.4974 73.83ZM66.3338 81.5V68.5H69.0638L69.2458 70.892V81.5H66.3338ZM75.1478 81.5V74.844H78.0598V81.5H75.1478ZM75.1478 74.844C75.1478 73.804 75.0264 73.0067 74.7838 72.452C74.5584 71.88 74.2291 71.4813 73.7958 71.256C73.3798 71.0307 72.8858 70.918 72.3138 70.918C71.3431 70.9007 70.5891 71.2213 70.0518 71.88C69.5144 72.5387 69.2458 73.4833 69.2458 74.714H68.1538C68.1538 73.3447 68.3531 72.1747 68.7518 71.204C69.1504 70.216 69.7224 69.4707 70.4678 68.968C71.2131 68.448 72.0971 68.188 73.1198 68.188C74.1598 68.188 75.0438 68.396 75.7718 68.812C76.5171 69.228 77.0804 69.878 77.4618 70.762C77.8604 71.6287 78.0598 72.764 78.0598 74.168V74.844H75.1478ZM85.5595 87.038C84.6409 87.038 83.8089 86.96 83.0635 86.804C82.3355 86.648 81.7202 86.466 81.2175 86.258C80.7149 86.05 80.3249 85.8507 80.0475 85.66L81.1655 83.32C81.4082 83.4413 81.7289 83.5887 82.1275 83.762C82.5435 83.9527 83.0289 84.1173 83.5835 84.256C84.1382 84.3947 84.7622 84.464 85.4555 84.464C86.2009 84.464 86.8682 84.308 87.4575 83.996C88.0469 83.7013 88.5062 83.242 88.8355 82.618C89.1649 81.994 89.3295 81.1967 89.3295 80.226V68.5H92.2415V80.148C92.2415 81.6213 91.9642 82.8693 91.4095 83.892C90.8549 84.932 90.0749 85.712 89.0695 86.232C88.0642 86.7693 86.8942 87.038 85.5595 87.038ZM85.1175 81.24C83.9389 81.24 82.9075 80.9713 82.0235 80.434C81.1569 79.8967 80.4722 79.1513 79.9695 78.198C79.4842 77.2273 79.2415 76.1093 79.2415 74.844C79.2415 73.492 79.4842 72.322 79.9695 71.334C80.4722 70.346 81.1569 69.5747 82.0235 69.02C82.9075 68.4653 83.9389 68.188 85.1175 68.188C86.1749 68.188 87.0935 68.4653 87.8735 69.02C88.6709 69.5747 89.2862 70.3547 89.7195 71.36C90.1529 72.348 90.3695 73.518 90.3695 74.87C90.3695 76.1527 90.1529 77.2707 89.7195 78.224C89.2862 79.1773 88.6709 79.9227 87.8735 80.46C87.0935 80.98 86.1749 81.24 85.1175 81.24ZM85.9235 78.77C86.5822 78.77 87.1542 78.5967 87.6395 78.25C88.1422 77.9033 88.5322 77.4353 88.8095 76.846C89.0869 76.2393 89.2255 75.546 89.2255 74.766C89.2255 73.9687 89.0869 73.2753 88.8095 72.686C88.5322 72.0793 88.1422 71.6113 87.6395 71.282C87.1369 70.9353 86.5562 70.762 85.8975 70.762C85.2042 70.762 84.5889 70.9353 84.0515 71.282C83.5315 71.6113 83.1155 72.0793 82.8035 72.686C82.5089 73.2753 82.3615 73.9687 82.3615 74.766C82.3615 75.546 82.5089 76.2393 82.8035 76.846C83.1155 77.4353 83.5402 77.9033 84.0775 78.25C84.6149 78.5967 85.2302 78.77 85.9235 78.77ZM100.216 81.812C98.9505 81.812 97.8238 81.526 96.8358 80.954C95.8652 80.3647 95.0938 79.5587 94.5218 78.536C93.9672 77.5133 93.6898 76.3347 93.6898 75C93.6898 73.6653 93.9758 72.4867 94.5478 71.464C95.1198 70.4413 95.8998 69.644 96.8878 69.072C97.8932 68.4827 99.0372 68.188 100.32 68.188C101.481 68.188 102.53 68.4913 103.466 69.098C104.402 69.6873 105.138 70.5453 105.676 71.672C106.23 72.7987 106.508 74.142 106.508 75.702H96.2898L96.6798 75.338C96.6798 76.1353 96.8532 76.8287 97.1998 77.418C97.5465 77.99 98.0058 78.432 98.5778 78.744C99.1498 79.056 99.7825 79.212 100.476 79.212C101.273 79.212 101.932 79.0387 102.452 78.692C102.972 78.328 103.379 77.86 103.674 77.288L106.248 78.38C105.884 79.0733 105.416 79.68 104.844 80.2C104.289 80.72 103.622 81.1187 102.842 81.396C102.079 81.6733 101.204 81.812 100.216 81.812ZM96.8618 73.83L96.4458 73.466H103.778L103.388 73.83C103.388 73.1193 103.232 72.5387 102.92 72.088C102.608 71.62 102.209 71.2733 101.724 71.048C101.256 70.8053 100.762 70.684 100.242 70.684C99.7218 70.684 99.2018 70.8053 98.6818 71.048C98.1618 71.2733 97.7285 71.62 97.3818 72.088C97.0352 72.5387 96.8618 73.1193 96.8618 73.83Z" fill="#0095FF"/>
</svg>
